inDegrees=no
num_controls=7
num_derivatives=13
num_iterations=92
num_multipliers=7
num_parameters=0
num_slacks=7
num_states=26
objective=5.752516
objective_accelerations=0.778920
objective_balance=0.045274
objective_effort=0.279327
objective_height=4.537604
objective_ligament=0.111392
solver_duration=1038.081511
status=Solve_Succeeded
success=true
DataType=double
version=3
OpenSimVersion=4.4-2022-07-23-0e9fedc
endheader
time	/jointset/ground_pelvis/pelvis_tilt/value	/jointset/ground_pelvis/pelvis_tx/value	/jointset/ground_pelvis/pelvis_ty/value	/jointset/hip_l/hip_flexion_l/value	/jointset/hip_l/hip_adduction_l/value	/jointset/hip_l/hip_rotation_l/value	/jointset/back/lumbar_extension/value	/jointset/patellofemoral_l/patellar_flexion_l/value	/jointset/knee_l/knee_flexion_l/value	/jointset/knee_l/knee_adduction_l/value	/jointset/knee_l/knee_rotation_l/value	/jointset/ankle_l/ankle_angle_l/value	/jointset/subtalar_l/subtalar_angle_l/value	/jointset/ground_pelvis/pelvis_tilt/speed	/jointset/ground_pelvis/pelvis_tx/speed	/jointset/ground_pelvis/pelvis_ty/speed	/jointset/hip_l/hip_flexion_l/speed	/jointset/hip_l/hip_adduction_l/speed	/jointset/hip_l/hip_rotation_l/speed	/jointset/back/lumbar_extension/speed	/jointset/patellofemoral_l/patellar_flexion_l/speed	/jointset/knee_l/knee_flexion_l/speed	/jointset/knee_l/knee_adduction_l/speed	/jointset/knee_l/knee_rotation_l/speed	/jointset/ankle_l/ankle_angle_l/speed	/jointset/subtalar_l/subtalar_angle_l/speed	/forceset/tau_hip_flexion_l	/forceset/tau_hip_adduction_l	/forceset/tau_hip_rotation_l	/forceset/tau_knee_flexion_l	/forceset/tau_ankle_angle_l	/forceset/tau_subtalar_angle_l	/forceset/tau_lumbar_extension	lambda_cid13_p0	lambda_cid13_p1	lambda_cid13_p2	lambda_cid13_p3	lambda_cid13_p4	lambda_cid13_p5	lambda_cid14_p0	/jointset/ground_pelvis/pelvis_tilt/accel	/jointset/ground_pelvis/pelvis_tx/accel	/jointset/ground_pelvis/pelvis_ty/accel	/jointset/hip_l/hip_flexion_l/accel	/jointset/hip_l/hip_adduction_l/accel	/jointset/hip_l/hip_rotation_l/accel	/jointset/back/lumbar_extension/accel	/jointset/patellofemoral_l/patellar_flexion_l/accel	/jointset/knee_l/knee_flexion_l/accel	/jointset/knee_l/knee_adduction_l/accel	/jointset/knee_l/knee_rotation_l/accel	/jointset/ankle_l/ankle_angle_l/accel	/jointset/subtalar_l/subtalar_angle_l/accel	gamma_cid13_p0	gamma_cid13_p1	gamma_cid13_p2	gamma_cid13_p3	gamma_cid13_p4	gamma_cid13_p5	gamma_cid14_p0
0	-0.04091710033785365	0.06952945772505052	0.8960071106197945	0.1955292361009247	-0.3214141843261857	-0.4951561497159169	-0.137903700187828	0.07015350928393829	0.07015350928391206	-0.1745328263320592	-0.1290353921942445	-0.06701017130107029	0.004589840801002536	0	0	0	0	0	0	0	0	0	0	0	0	0	0.1200304505013241	-0.1084936265848904	-0.03791386176492658	-0.2755079952006051	0.267462280665336	-0.03257378786850203	-0.05923173483882048	49.79347914326629	2.308200695860449	2.860017531902615	-22.9256884671954	-514.8369618623238	-70.00844460431767	-40.21829467793078	-4.09489916134932	-1.307171474412338	-0.9552616979513401	12.02124323077418	-2.332615258321351	3.742846950730522	-2.71856951006462	11.25896217264055	11.25896217263263	0.9311434719021011	-0.732066453577533	3.58409859450326	-0.606085836353297	-6.934967036734337e-08	1.470593418656228e-07	2.355595809135194e-07	3.202012306934869e-08	-5.739327517000894e-08	-1.291423292397541e-07	-1.841037863497558e-08
0.01	-0.04111132310564533	0.06946451733826632	0.8959608217668266	0.1961102144452341	-0.321528388558184	-0.494968134922332	-0.1380459449944643	0.07070075153838208	0.07070075153799286	-0.174488785907713	-0.1290653586891533	-0.06683717966475473	0.004558754962937261	-0.03860867119987434	-0.01298628011121394	-0.009224685538907384	0.1157092941709505	-0.02267725966482995	0.03739116550735568	-0.028234646852469	0.1089547891109436	0.1089547891109435	0.008875573244356286	-0.006012164420593302	0.03438424609421178	-0.006156118683932615	0.1132019586914338	-0.1109338441875447	-0.03620017736577567	-0.2641790528023802	0.2478095567641458	-0.02282939206991552	-0.05387029743854197	43.80236528546562	-0.8243685185254211	3.301840279410544	-19.65629530123461	-515.7161431354405	-77.06850415194245	-40.22907153163711	-3.708486134093216	-1.294080288211559	-0.9011207023984469	11.27279769943521	-2.210794943197773	3.705452932588721	-2.843765103669354	10.6396916976808	10.6396916976845	0.8759422259596168	-0.538594000105233	3.333474183493287	-0.6112675109845691	-9.74823654419439e-08	2.047339074311108e-07	2.705815081784748e-07	7.160416553913999e-08	-2.854354701157255e-07	-1.555442339196092e-07	-1.282088623291404e-08
0.02	-0.04168455959236722	0.06926976934862002	0.8958232763143636	0.1978336907693135	-0.321864468111398	-0.4944125681575034	-0.1384641068357498	0.07232273256729163	0.07232273256727297	-0.1743539541562053	-0.1291560073414136	-0.06632676825418508	0.004467929412720377	-0.07580274379158349	-0.0259615205724188	-0.0182513198990054	0.2284995959087842	-0.04437506423506097	0.07351039428873421	-0.05518340693824152	0.2149477549163218	0.2149477549163619	0.01815826549906973	-0.01213643139338744	0.06748395485299141	-0.01194794243068919	0.1063734668849158	-0.1133740617900386	-0.03448649296382889	-0.2528501104023264	0.2281568328639448	-0.01308499627064809	-0.04850886003644422	37.88230916730948	-3.969910612946963	3.746340541610362	-16.59926171001689	-515.5798479798437	-83.94030968297608	-40.26081930857137	-3.811979439716591	-1.304963544410386	-0.9156514621894929	11.43744474415092	-2.136724239401679	3.488459605535115	-2.46139215672582	10.66659751152754	10.66659751152767	1.012567273973239	-0.7544869640176869	3.32719112741698	-0.5332268489181666	-1.256150605165444e-07	2.624084729965988e-07	3.056034354434301e-07	1.111882080089313e-07	-5.134776650614421e-07	-1.819461385994643e-07	-7.23139383085249e-09
0.03	-0.042623998966347	0.06894615766862779	0.8955960700941236	0.2006710970799633	-0.3224131965232128	-0.4935016324899241	-0.1391442411753221	0.0749904884389366	0.07499048843896258	-0.1741254966281269	-0.1293080444153523	-0.0654906921094997	0.004320958705931531	-0.1119185362892417	-0.03867297123988014	-0.02718587175191245	0.33844221237446	-0.06526449320030586	0.1085530661079938	-0.08058726868791004	0.3181017305465726	0.3181017305465578	0.02744547027919123	-0.01818864964119662	0.09959871095643158	-0.01740588280822183	0.1021225600049714	-0.1076163777794096	-0.03375124843764328	-0.2486955882442805	0.2243193218252345	-0.01471814403135431	-0.04495204581004792	36.61922367453448	-3.170304186907982	3.768296236416439	-16.0834733685458	-515.5306846486536	-81.5228245890774	-40.31221563989916	-3.486405561437737	-1.241036802454656	-0.8818528042031807	10.69172779057306	-2.049203705593571	3.493584662447095	-2.541454341708407	10.06454568174469	10.06454568173555	0.8737134456134888	-0.5182079400290376	3.133731964751481	-0.5461057057888791	-1.656692114239338e-07	2.642795821990963e-07	3.99359151921402e-07	1.42039110398547e-07	-7.077727466187161e-07	-2.532543244815064e-07	-1.645739437973684e-08
0.04	-0.04391960154658455	0.06849807128705095	0.8952796192038825	0.2045917410937486	-0.3231676495208067	-0.492243987365699	-0.1400707283639392	0.07867473368555052	0.07867473368553392	-0.1738067837790562	-0.1295181274086308	-0.06433744558119323	0.004120602980645415	-0.1470353850530031	-0.05085646088933878	-0.03610025389919549	0.4451471365518359	-0.08551998138590462	0.1428522856202989	-0.1044539767424657	0.4182456298956838	0.4182456298956044	0.03620932968265056	-0.02374561528369407	0.1309180315776553	-0.02262494613044574	0.09787165312403585	-0.1018586937685247	-0.03301600391246271	-0.2445410660861319	0.2204818107866837	-0.01635129179168919	-0.04139523158477508	35.42159615526209	-2.380088454179454	3.789385628532401	-15.76276080934102	-514.5549145413729	-78.92538625924929	-40.38146668260013	-3.612190692937423	-1.199371340809859	-0.9116175210646956	10.78990628649116	-2.009936083472342	3.339769144144237	-2.15396141770374	10.0645822552997	10.06458225529789	0.9078981986410536	-0.6554364429553502	3.168104030973749	-0.4854514378562905	-2.059691655443704e-07	2.650001046724598e-07	4.943258743625289e-07	1.727099480442415e-07	-9.013720114050944e-07	-3.254884130687483e-07	-2.5988869010084e-08
0.05	-0.04556179904498502	0.06793039151964619	0.8948738455122345	0.2095650164354875	-0.3241212083418958	-0.4906481056594303	-0.1412280205053799	0.08334651285192854	0.08334651285190132	-0.1734023083166154	-0.1297827530867155	-0.06287498923281008	0.003869542215233391	-0.1812089976501387	-0.06262810160838164	-0.04506816753861066	0.5490144565431692	-0.1050487724078965	0.1761601171561543	-0.126803042549536	0.5156233787217275	0.515623378721755	0.04465342656044536	-0.02914393779585385	0.161404544607206	-0.0275279557714263	0.0923645658415294	-0.0964828592101781	-0.03189846211822692	-0.2384046971403123	0.2122801446970209	-0.01607338982752459	-0.03707432690344395	32.87544361514032	-2.178803594181137	3.898744257593261	-14.34017293797644	-513.6855699370433	-77.74719594178298	-40.46634303682134	-3.290694415294547	-1.158317000433124	-0.8916125904508524	10.1110932982124	-1.902987181477995	3.301633693048488	-2.245167813667228	9.501352772245413	9.501352772262315	0.8079204584930172	-0.4766307909555629	2.963615408945962	-0.4839350057837578	-2.208090167855957e-07	2.557755231692982e-07	5.219570092970829e-07	1.878397579177969e-07	-1.007406203054561e-06	-3.502342775282966e-07	-2.798532612755872e-08
